<svg xmlns="http://www.w3.org/2000/svg" xmlns:rdkit="http://www.rdkit.org/xml" xmlns:xlink="http://www.w3.org/1999/xlink" version="1.1" baseProfile="full" xml:space="preserve" width="600px" height="600px" viewBox="0 0 600 600">
<!-- END OF HEADER -->
<rect style="opacity:1.0;fill:#FFFFFF;stroke:none" width="600.0" height="600.0" x="0.0" y="0.0"> </rect>
<path class="bond-0 atom-0 atom-1" d="M 81.1,210.5 L 89.7,252.2 L 85.5,255.1 L 79.9,251.4 L 71.8,212.4 Z" style="fill:#E56666;fill-rule:evenodd;fill-opacity:1;stroke:#E56666;stroke-width:0.0px;stroke-linecap:butt;stroke-linejoin:miter;stroke-miterlimit:10;stroke-opacity:1;"/>
<path class="bond-1 atom-1 atom-2" d="M 89.7,252.2 L 99.1,297.7 L 89.8,299.7 L 81.8,260.7 L 85.5,255.1 Z" style="fill:#E56666;fill-rule:evenodd;fill-opacity:1;stroke:#E56666;stroke-width:0.0px;stroke-linecap:butt;stroke-linejoin:miter;stroke-miterlimit:10;stroke-opacity:1;"/>
<path class="bond-2 atom-1 atom-3" d="M 79.9,251.4 L 85.5,255.1 L 81.8,260.7 L 42.8,268.8 L 40.9,259.4 Z" style="fill:#E56666;fill-rule:evenodd;fill-opacity:1;stroke:#E56666;stroke-width:0.0px;stroke-linecap:butt;stroke-linejoin:miter;stroke-miterlimit:10;stroke-opacity:1;"/>
<path class="bond-6 atom-5 atom-7" d="M 198.6,266.2 L 202.3,270.3 L 200.6,275.5 L 159.6,284.0 L 157.7,274.7 Z" style="fill:#6699F2;fill-rule:evenodd;fill-opacity:1;stroke:#6699F2;stroke-width:0.0px;stroke-linecap:butt;stroke-linejoin:miter;stroke-miterlimit:10;stroke-opacity:1;"/>
<path class="bond-7 atom-7 atom-8" d="M 212.6,224.0 L 219.9,232.2 L 207.7,269.2 L 202.3,270.3 L 198.6,266.2 Z" style="fill:#6699F2;fill-rule:evenodd;fill-opacity:1;stroke:#6699F2;stroke-width:0.0px;stroke-linecap:butt;stroke-linejoin:miter;stroke-miterlimit:10;stroke-opacity:1;"/>
<path class="bond-32 atom-7 atom-32" d="M 207.7,269.2 L 233.6,298.4 L 230.2,308.8 L 200.6,275.5 L 202.3,270.3 Z" style="fill:#6699F2;fill-rule:evenodd;fill-opacity:1;stroke:#6699F2;stroke-width:0.0px;stroke-linecap:butt;stroke-linejoin:miter;stroke-miterlimit:10;stroke-opacity:1;"/>
<path class="bond-8 atom-8 atom-9" d="M 261.6,213.8 L 258.2,224.3 L 219.9,232.2 L 212.6,224.0 Z" style="fill:#6699F2;fill-rule:evenodd;fill-opacity:1;stroke:#6699F2;stroke-width:0.0px;stroke-linecap:butt;stroke-linejoin:miter;stroke-miterlimit:10;stroke-opacity:1;"/>
<path class="bond-9 atom-9 atom-10" d="M 261.6,213.8 L 291.2,247.1 L 289.5,252.3 L 284.1,253.4 L 258.2,224.3 Z" style="fill:#6699F2;fill-rule:evenodd;fill-opacity:1;stroke:#6699F2;stroke-width:0.0px;stroke-linecap:butt;stroke-linejoin:miter;stroke-miterlimit:10;stroke-opacity:1;"/>
<path class="bond-10 atom-10 atom-11" d="M 332.1,238.6 L 334.1,247.9 L 293.1,256.4 L 289.5,252.3 L 291.2,247.1 Z" style="fill:#E56666;fill-rule:evenodd;fill-opacity:1;stroke:#E56666;stroke-width:0.0px;stroke-linecap:butt;stroke-linejoin:miter;stroke-miterlimit:10;stroke-opacity:1;"/>
<path class="bond-11 atom-10 atom-12" d="M 289.5,252.3 L 293.1,256.4 L 280.9,293.5 L 275.5,294.6 L 271.9,290.5 L 284.1,253.4 Z" style="fill:#E56666;fill-rule:evenodd;fill-opacity:1;stroke:#E56666;stroke-width:0.0px;stroke-linecap:butt;stroke-linejoin:miter;stroke-miterlimit:10;stroke-opacity:1;"/>
<path class="bond-12 atom-12 atom-13" d="M 280.9,293.5 L 306.8,322.6 L 303.4,333.0 L 273.8,299.8 L 275.5,294.6 Z" style="fill:#E56666;fill-rule:evenodd;fill-opacity:1;stroke:#E56666;stroke-width:0.0px;stroke-linecap:butt;stroke-linejoin:miter;stroke-miterlimit:10;stroke-opacity:1;"/>
<path class="bond-31 atom-12 atom-32" d="M 271.9,290.5 L 275.5,294.6 L 273.8,299.8 L 230.2,308.8 L 233.6,298.4 Z" style="fill:#E56666;fill-rule:evenodd;fill-opacity:1;stroke:#E56666;stroke-width:0.0px;stroke-linecap:butt;stroke-linejoin:miter;stroke-miterlimit:10;stroke-opacity:1;"/>
<path class="bond-33 atom-13 atom-31" d="M 350.4,313.6 L 347.0,324.0 L 303.4,333.0 L 306.8,322.6 Z" style="fill:#E56666;fill-rule:evenodd;fill-opacity:1;stroke:#E56666;stroke-width:0.0px;stroke-linecap:butt;stroke-linejoin:miter;stroke-miterlimit:10;stroke-opacity:1;"/>
<path class="bond-30 atom-30 atom-31" d="M 350.4,313.6 L 381.9,348.9 L 374.8,355.2 L 347.0,324.0 Z" style="fill:#E56666;fill-rule:evenodd;fill-opacity:1;stroke:#E56666;stroke-width:0.0px;stroke-linecap:butt;stroke-linejoin:miter;stroke-miterlimit:10;stroke-opacity:1;"/>
<ellipse cx="76.5" cy="211.5" rx="11.9" ry="11.9" class="atom-0" style="fill:#E56666;fill-rule:evenodd;stroke:#E56666;stroke-width:1.0px;stroke-linecap:butt;stroke-linejoin:miter;stroke-opacity:1"/>
<ellipse cx="85.5" cy="255.1" rx="11.9" ry="11.9" class="atom-1" style="fill:#E56666;fill-rule:evenodd;stroke:#E56666;stroke-width:1.0px;stroke-linecap:butt;stroke-linejoin:miter;stroke-opacity:1"/>
<ellipse cx="94.5" cy="298.7" rx="11.9" ry="11.9" class="atom-2" style="fill:#E56666;fill-rule:evenodd;stroke:#E56666;stroke-width:1.0px;stroke-linecap:butt;stroke-linejoin:miter;stroke-opacity:1"/>
<ellipse cx="41.9" cy="264.1" rx="11.9" ry="11.9" class="atom-3" style="fill:#E56666;fill-rule:evenodd;stroke:#E56666;stroke-width:1.0px;stroke-linecap:butt;stroke-linejoin:miter;stroke-opacity:1"/>
<ellipse cx="158.7" cy="279.3" rx="11.9" ry="11.9" class="atom-5" style="fill:#6699F2;fill-rule:evenodd;stroke:#6699F2;stroke-width:1.0px;stroke-linecap:butt;stroke-linejoin:miter;stroke-opacity:1"/>
<ellipse cx="202.3" cy="270.3" rx="11.9" ry="11.9" class="atom-7" style="fill:#6699F2;fill-rule:evenodd;stroke:#6699F2;stroke-width:1.0px;stroke-linecap:butt;stroke-linejoin:miter;stroke-opacity:1"/>
<ellipse cx="216.3" cy="228.1" rx="11.9" ry="11.9" class="atom-8" style="fill:#6699F2;fill-rule:evenodd;stroke:#6699F2;stroke-width:1.0px;stroke-linecap:butt;stroke-linejoin:miter;stroke-opacity:1"/>
<ellipse cx="259.9" cy="219.1" rx="11.9" ry="11.9" class="atom-9" style="fill:#6699F2;fill-rule:evenodd;stroke:#6699F2;stroke-width:1.0px;stroke-linecap:butt;stroke-linejoin:miter;stroke-opacity:1"/>
<ellipse cx="289.5" cy="252.3" rx="11.9" ry="11.9" class="atom-10" style="fill:#6699F2;fill-rule:evenodd;stroke:#6699F2;stroke-width:1.0px;stroke-linecap:butt;stroke-linejoin:miter;stroke-opacity:1"/>
<ellipse cx="333.1" cy="243.3" rx="11.9" ry="11.9" class="atom-11" style="fill:#E56666;fill-rule:evenodd;stroke:#E56666;stroke-width:1.0px;stroke-linecap:butt;stroke-linejoin:miter;stroke-opacity:1"/>
<ellipse cx="275.5" cy="294.6" rx="11.9" ry="11.9" class="atom-12" style="fill:#E56666;fill-rule:evenodd;stroke:#E56666;stroke-width:1.0px;stroke-linecap:butt;stroke-linejoin:miter;stroke-opacity:1"/>
<ellipse cx="305.1" cy="327.8" rx="11.9" ry="11.9" class="atom-13" style="fill:#E56666;fill-rule:evenodd;stroke:#E56666;stroke-width:1.0px;stroke-linecap:butt;stroke-linejoin:miter;stroke-opacity:1"/>
<ellipse cx="378.3" cy="352.1" rx="11.9" ry="11.9" class="atom-30" style="fill:#E56666;fill-rule:evenodd;stroke:#E56666;stroke-width:1.0px;stroke-linecap:butt;stroke-linejoin:miter;stroke-opacity:1"/>
<ellipse cx="348.7" cy="318.8" rx="11.9" ry="11.9" class="atom-31" style="fill:#E56666;fill-rule:evenodd;stroke:#E56666;stroke-width:1.0px;stroke-linecap:butt;stroke-linejoin:miter;stroke-opacity:1"/>
<ellipse cx="231.9" cy="303.6" rx="11.9" ry="11.9" class="atom-32" style="fill:#6699F2;fill-rule:evenodd;stroke:#6699F2;stroke-width:1.0px;stroke-linecap:butt;stroke-linejoin:miter;stroke-opacity:1"/>
<path class="bond-0 atom-0 atom-1" d="M 76.5,211.5 L 85.5,255.1" style="fill:none;fill-rule:evenodd;stroke:#000000;stroke-width:2.0px;stroke-linecap:butt;stroke-linejoin:miter;stroke-opacity:1"/>
<path class="bond-1 atom-1 atom-2" d="M 85.5,255.1 L 94.5,298.7" style="fill:none;fill-rule:evenodd;stroke:#000000;stroke-width:2.0px;stroke-linecap:butt;stroke-linejoin:miter;stroke-opacity:1"/>
<path class="bond-2 atom-1 atom-3" d="M 85.5,255.1 L 41.9,264.1" style="fill:none;fill-rule:evenodd;stroke:#000000;stroke-width:2.0px;stroke-linecap:butt;stroke-linejoin:miter;stroke-opacity:1"/>
<path class="bond-3 atom-1 atom-4" d="M 85.5,255.1 L 104.2,251.2" style="fill:none;fill-rule:evenodd;stroke:#000000;stroke-width:2.0px;stroke-linecap:butt;stroke-linejoin:miter;stroke-opacity:1"/>
<path class="bond-3 atom-1 atom-4" d="M 104.2,251.2 L 122.8,247.4" style="fill:none;fill-rule:evenodd;stroke:#0000FF;stroke-width:2.0px;stroke-linecap:butt;stroke-linejoin:miter;stroke-opacity:1"/>
<path class="bond-4 atom-4 atom-5" d="M 135.3,253.1 L 147.0,266.2" style="fill:none;fill-rule:evenodd;stroke:#0000FF;stroke-width:2.0px;stroke-linecap:butt;stroke-linejoin:miter;stroke-opacity:1"/>
<path class="bond-4 atom-4 atom-5" d="M 147.0,266.2 L 158.7,279.3" style="fill:none;fill-rule:evenodd;stroke:#000000;stroke-width:2.0px;stroke-linecap:butt;stroke-linejoin:miter;stroke-opacity:1"/>
<path class="bond-5 atom-5 atom-6" d="M 156.1,276.5 L 150.1,294.6" style="fill:none;fill-rule:evenodd;stroke:#000000;stroke-width:2.0px;stroke-linecap:butt;stroke-linejoin:miter;stroke-opacity:1"/>
<path class="bond-5 atom-5 atom-6" d="M 150.1,294.6 L 144.1,312.7" style="fill:none;fill-rule:evenodd;stroke:#FF0000;stroke-width:2.0px;stroke-linecap:butt;stroke-linejoin:miter;stroke-opacity:1"/>
<path class="bond-5 atom-5 atom-6" d="M 162.5,278.6 L 156.5,296.7" style="fill:none;fill-rule:evenodd;stroke:#000000;stroke-width:2.0px;stroke-linecap:butt;stroke-linejoin:miter;stroke-opacity:1"/>
<path class="bond-5 atom-5 atom-6" d="M 156.5,296.7 L 150.5,314.8" style="fill:none;fill-rule:evenodd;stroke:#FF0000;stroke-width:2.0px;stroke-linecap:butt;stroke-linejoin:miter;stroke-opacity:1"/>
<path class="bond-6 atom-5 atom-7" d="M 158.7,279.3 L 202.3,270.3" style="fill:none;fill-rule:evenodd;stroke:#000000;stroke-width:2.0px;stroke-linecap:butt;stroke-linejoin:miter;stroke-opacity:1"/>
<path class="bond-7 atom-7 atom-8" d="M 202.3,270.3 L 216.3,228.1" style="fill:none;fill-rule:evenodd;stroke:#000000;stroke-width:2.0px;stroke-linecap:butt;stroke-linejoin:miter;stroke-opacity:1"/>
<path class="bond-7 atom-7 atom-8" d="M 209.8,268.8 L 221.4,233.8" style="fill:none;fill-rule:evenodd;stroke:#000000;stroke-width:2.0px;stroke-linecap:butt;stroke-linejoin:miter;stroke-opacity:1"/>
<path class="bond-8 atom-8 atom-9" d="M 216.3,228.1 L 259.9,219.1" style="fill:none;fill-rule:evenodd;stroke:#000000;stroke-width:2.0px;stroke-linecap:butt;stroke-linejoin:miter;stroke-opacity:1"/>
<path class="bond-9 atom-9 atom-10" d="M 259.9,219.1 L 289.5,252.3" style="fill:none;fill-rule:evenodd;stroke:#000000;stroke-width:2.0px;stroke-linecap:butt;stroke-linejoin:miter;stroke-opacity:1"/>
<path class="bond-9 atom-9 atom-10" d="M 257.5,226.4 L 281.9,253.9" style="fill:none;fill-rule:evenodd;stroke:#000000;stroke-width:2.0px;stroke-linecap:butt;stroke-linejoin:miter;stroke-opacity:1"/>
<path class="bond-10 atom-10 atom-11" d="M 289.5,252.3 L 327.9,244.4" style="fill:none;fill-rule:evenodd;stroke:#000000;stroke-width:2.0px;stroke-linecap:butt;stroke-linejoin:miter;stroke-opacity:1"/>
<path class="bond-11 atom-10 atom-12" d="M 289.5,252.3 L 275.5,294.6" style="fill:none;fill-rule:evenodd;stroke:#000000;stroke-width:2.0px;stroke-linecap:butt;stroke-linejoin:miter;stroke-opacity:1"/>
<path class="bond-12 atom-12 atom-13" d="M 275.5,294.6 L 305.1,327.8" style="fill:none;fill-rule:evenodd;stroke:#000000;stroke-width:2.0px;stroke-linecap:butt;stroke-linejoin:miter;stroke-opacity:1"/>
<path class="bond-13 atom-13 atom-14" d="M 305.1,327.8 L 291.1,370.1" style="fill:none;fill-rule:evenodd;stroke:#000000;stroke-width:2.0px;stroke-linecap:butt;stroke-linejoin:miter;stroke-opacity:1"/>
<path class="bond-14 atom-14 atom-15" d="M 291.1,370.1 L 320.7,403.4" style="fill:none;fill-rule:evenodd;stroke:#000000;stroke-width:2.0px;stroke-linecap:butt;stroke-linejoin:miter;stroke-opacity:1"/>
<path class="bond-14 atom-14 atom-15" d="M 298.7,368.5 L 323.1,396.0" style="fill:none;fill-rule:evenodd;stroke:#000000;stroke-width:2.0px;stroke-linecap:butt;stroke-linejoin:miter;stroke-opacity:1"/>
<path class="bond-15 atom-15 atom-16" d="M 320.7,403.4 L 364.3,394.3" style="fill:none;fill-rule:evenodd;stroke:#000000;stroke-width:2.0px;stroke-linecap:butt;stroke-linejoin:miter;stroke-opacity:1"/>
<path class="bond-16 atom-16 atom-17" d="M 364.3,394.3 L 379.1,405.2" style="fill:none;fill-rule:evenodd;stroke:#000000;stroke-width:2.0px;stroke-linecap:butt;stroke-linejoin:miter;stroke-opacity:1"/>
<path class="bond-16 atom-16 atom-17" d="M 379.1,405.2 L 393.9,416.1" style="fill:none;fill-rule:evenodd;stroke:#0000FF;stroke-width:2.0px;stroke-linecap:butt;stroke-linejoin:miter;stroke-opacity:1"/>
<path class="bond-16 atom-16 atom-17" d="M 372.2,391.8 L 385.0,401.3" style="fill:none;fill-rule:evenodd;stroke:#000000;stroke-width:2.0px;stroke-linecap:butt;stroke-linejoin:miter;stroke-opacity:1"/>
<path class="bond-16 atom-16 atom-17" d="M 385.0,401.3 L 397.9,410.7" style="fill:none;fill-rule:evenodd;stroke:#0000FF;stroke-width:2.0px;stroke-linecap:butt;stroke-linejoin:miter;stroke-opacity:1"/>
<path class="bond-17 atom-17 atom-18" d="M 406.4,416.2 L 421.4,405.5" style="fill:none;fill-rule:evenodd;stroke:#0000FF;stroke-width:2.0px;stroke-linecap:butt;stroke-linejoin:miter;stroke-opacity:1"/>
<path class="bond-17 atom-17 atom-18" d="M 421.4,405.5 L 436.4,394.8" style="fill:none;fill-rule:evenodd;stroke:#000000;stroke-width:2.0px;stroke-linecap:butt;stroke-linejoin:miter;stroke-opacity:1"/>
<path class="bond-18 atom-18 atom-19" d="M 436.4,394.8 L 422.8,352.3" style="fill:none;fill-rule:evenodd;stroke:#000000;stroke-width:2.0px;stroke-linecap:butt;stroke-linejoin:miter;stroke-opacity:1"/>
<path class="bond-18 atom-18 atom-19" d="M 428.5,392.2 L 417.9,359.0" style="fill:none;fill-rule:evenodd;stroke:#000000;stroke-width:2.0px;stroke-linecap:butt;stroke-linejoin:miter;stroke-opacity:1"/>
<path class="bond-19 atom-19 atom-20" d="M 422.8,352.3 L 449.2,316.5" style="fill:none;fill-rule:evenodd;stroke:#000000;stroke-width:2.0px;stroke-linecap:butt;stroke-linejoin:miter;stroke-opacity:1"/>
<path class="bond-20 atom-20 atom-21" d="M 449.2,316.5 L 493.5,321.4" style="fill:none;fill-rule:evenodd;stroke:#000000;stroke-width:2.0px;stroke-linecap:butt;stroke-linejoin:miter;stroke-opacity:1"/>
<path class="bond-20 atom-20 atom-21" d="M 453.8,310.2 L 490.4,314.3" style="fill:none;fill-rule:evenodd;stroke:#000000;stroke-width:2.0px;stroke-linecap:butt;stroke-linejoin:miter;stroke-opacity:1"/>
<path class="bond-21 atom-21 atom-22" d="M 493.5,321.4 L 519.8,285.5" style="fill:none;fill-rule:evenodd;stroke:#000000;stroke-width:2.0px;stroke-linecap:butt;stroke-linejoin:miter;stroke-opacity:1"/>
<path class="bond-22 atom-22 atom-23" d="M 519.8,285.5 L 502.0,244.7" style="fill:none;fill-rule:evenodd;stroke:#000000;stroke-width:2.0px;stroke-linecap:butt;stroke-linejoin:miter;stroke-opacity:1"/>
<path class="bond-22 atom-22 atom-23" d="M 512.2,284.6 L 497.4,250.9" style="fill:none;fill-rule:evenodd;stroke:#000000;stroke-width:2.0px;stroke-linecap:butt;stroke-linejoin:miter;stroke-opacity:1"/>
<path class="bond-23 atom-23 atom-24" d="M 502.0,244.7 L 512.4,230.5" style="fill:none;fill-rule:evenodd;stroke:#000000;stroke-width:2.0px;stroke-linecap:butt;stroke-linejoin:miter;stroke-opacity:1"/>
<path class="bond-23 atom-23 atom-24" d="M 512.4,230.5 L 522.8,216.3" style="fill:none;fill-rule:evenodd;stroke:#CCCC00;stroke-width:2.0px;stroke-linecap:butt;stroke-linejoin:miter;stroke-opacity:1"/>
<path class="bond-24 atom-24 atom-25" d="M 533.9,201.3 L 544.3,187.2" style="fill:none;fill-rule:evenodd;stroke:#CCCC00;stroke-width:2.0px;stroke-linecap:butt;stroke-linejoin:miter;stroke-opacity:1"/>
<path class="bond-24 atom-24 atom-25" d="M 544.3,187.2 L 554.7,173.0" style="fill:none;fill-rule:evenodd;stroke:#000000;stroke-width:2.0px;stroke-linecap:butt;stroke-linejoin:miter;stroke-opacity:1"/>
<path class="bond-25 atom-24 atom-26" d="M 524.8,202.1 L 513.3,193.6" style="fill:none;fill-rule:evenodd;stroke:#CCCC00;stroke-width:2.0px;stroke-linecap:butt;stroke-linejoin:miter;stroke-opacity:1"/>
<path class="bond-25 atom-24 atom-26" d="M 513.3,193.6 L 501.7,185.1" style="fill:none;fill-rule:evenodd;stroke:#FF0000;stroke-width:2.0px;stroke-linecap:butt;stroke-linejoin:miter;stroke-opacity:1"/>
<path class="bond-25 atom-24 atom-26" d="M 520.8,207.5 L 509.3,199.0" style="fill:none;fill-rule:evenodd;stroke:#CCCC00;stroke-width:2.0px;stroke-linecap:butt;stroke-linejoin:miter;stroke-opacity:1"/>
<path class="bond-25 atom-24 atom-26" d="M 509.3,199.0 L 497.7,190.5" style="fill:none;fill-rule:evenodd;stroke:#FF0000;stroke-width:2.0px;stroke-linecap:butt;stroke-linejoin:miter;stroke-opacity:1"/>
<path class="bond-26 atom-24 atom-27" d="M 531.9,215.6 L 543.4,224.1" style="fill:none;fill-rule:evenodd;stroke:#CCCC00;stroke-width:2.0px;stroke-linecap:butt;stroke-linejoin:miter;stroke-opacity:1"/>
<path class="bond-26 atom-24 atom-27" d="M 543.4,224.1 L 555.0,232.6" style="fill:none;fill-rule:evenodd;stroke:#FF0000;stroke-width:2.0px;stroke-linecap:butt;stroke-linejoin:miter;stroke-opacity:1"/>
<path class="bond-26 atom-24 atom-27" d="M 535.8,210.2 L 547.4,218.7" style="fill:none;fill-rule:evenodd;stroke:#CCCC00;stroke-width:2.0px;stroke-linecap:butt;stroke-linejoin:miter;stroke-opacity:1"/>
<path class="bond-26 atom-24 atom-27" d="M 547.4,218.7 L 558.9,227.2" style="fill:none;fill-rule:evenodd;stroke:#FF0000;stroke-width:2.0px;stroke-linecap:butt;stroke-linejoin:miter;stroke-opacity:1"/>
<path class="bond-27 atom-23 atom-28" d="M 502.0,244.7 L 457.7,239.8" style="fill:none;fill-rule:evenodd;stroke:#000000;stroke-width:2.0px;stroke-linecap:butt;stroke-linejoin:miter;stroke-opacity:1"/>
<path class="bond-28 atom-28 atom-29" d="M 457.7,239.8 L 431.3,275.7" style="fill:none;fill-rule:evenodd;stroke:#000000;stroke-width:2.0px;stroke-linecap:butt;stroke-linejoin:miter;stroke-opacity:1"/>
<path class="bond-28 atom-28 atom-29" d="M 460.8,246.9 L 439.0,276.5" style="fill:none;fill-rule:evenodd;stroke:#000000;stroke-width:2.0px;stroke-linecap:butt;stroke-linejoin:miter;stroke-opacity:1"/>
<path class="bond-29 atom-19 atom-30" d="M 422.8,352.3 L 384.6,352.1" style="fill:none;fill-rule:evenodd;stroke:#000000;stroke-width:2.0px;stroke-linecap:butt;stroke-linejoin:miter;stroke-opacity:1"/>
<path class="bond-30 atom-30 atom-31" d="M 372.1,345.1 L 355.0,325.8" style="fill:none;fill-rule:evenodd;stroke:#000000;stroke-width:2.0px;stroke-linecap:butt;stroke-linejoin:miter;stroke-opacity:1"/>
<path class="bond-31 atom-12 atom-32" d="M 275.5,294.6 L 231.9,303.6" style="fill:none;fill-rule:evenodd;stroke:#000000;stroke-width:2.0px;stroke-linecap:butt;stroke-linejoin:miter;stroke-opacity:1"/>
<path class="bond-31 atom-12 atom-32" d="M 270.4,288.8 L 234.3,296.3" style="fill:none;fill-rule:evenodd;stroke:#000000;stroke-width:2.0px;stroke-linecap:butt;stroke-linejoin:miter;stroke-opacity:1"/>
<path class="bond-32 atom-32 atom-7" d="M 231.9,303.6 L 202.3,270.3" style="fill:none;fill-rule:evenodd;stroke:#000000;stroke-width:2.0px;stroke-linecap:butt;stroke-linejoin:miter;stroke-opacity:1"/>
<path class="bond-33 atom-31 atom-13" d="M 342.5,320.1 L 305.1,327.8" style="fill:none;fill-rule:evenodd;stroke:#000000;stroke-width:2.0px;stroke-linecap:butt;stroke-linejoin:miter;stroke-opacity:1"/>
<path class="bond-33 atom-31 atom-13" d="M 343.8,326.7 L 310.2,333.6" style="fill:none;fill-rule:evenodd;stroke:#000000;stroke-width:2.0px;stroke-linecap:butt;stroke-linejoin:miter;stroke-opacity:1"/>
<path class="bond-34 atom-30 atom-16" d="M 375.7,359.9 L 364.3,394.3" style="fill:none;fill-rule:evenodd;stroke:#000000;stroke-width:2.0px;stroke-linecap:butt;stroke-linejoin:miter;stroke-opacity:1"/>
<path class="bond-35 atom-29 atom-20" d="M 431.3,275.7 L 449.2,316.5" style="fill:none;fill-rule:evenodd;stroke:#000000;stroke-width:2.0px;stroke-linecap:butt;stroke-linejoin:miter;stroke-opacity:1"/>
<path d="M 158.1,278.7 L 158.7,279.3 L 160.9,278.9" style="fill:none;stroke:#000000;stroke-width:2.0px;stroke-linecap:butt;stroke-linejoin:miter;stroke-miterlimit:10;stroke-opacity:1;"/>
<path d="M 215.6,230.2 L 216.3,228.1 L 218.5,227.6" style="fill:none;stroke:#000000;stroke-width:2.0px;stroke-linecap:butt;stroke-linejoin:miter;stroke-miterlimit:10;stroke-opacity:1;"/>
<path d="M 257.7,219.5 L 259.9,219.1 L 261.4,220.7" style="fill:none;stroke:#000000;stroke-width:2.0px;stroke-linecap:butt;stroke-linejoin:miter;stroke-miterlimit:10;stroke-opacity:1;"/>
<path d="M 291.8,368.0 L 291.1,370.1 L 292.6,371.8" style="fill:none;stroke:#000000;stroke-width:2.0px;stroke-linecap:butt;stroke-linejoin:miter;stroke-miterlimit:10;stroke-opacity:1;"/>
<path d="M 319.2,401.7 L 320.7,403.4 L 322.9,402.9" style="fill:none;stroke:#000000;stroke-width:2.0px;stroke-linecap:butt;stroke-linejoin:miter;stroke-miterlimit:10;stroke-opacity:1;"/>
<path d="M 435.6,395.3 L 436.4,394.8 L 435.7,392.6" style="fill:none;stroke:#000000;stroke-width:2.0px;stroke-linecap:butt;stroke-linejoin:miter;stroke-miterlimit:10;stroke-opacity:1;"/>
<path d="M 491.3,321.1 L 493.5,321.4 L 494.8,319.6" style="fill:none;stroke:#000000;stroke-width:2.0px;stroke-linecap:butt;stroke-linejoin:miter;stroke-miterlimit:10;stroke-opacity:1;"/>
<path d="M 518.5,287.3 L 519.8,285.5 L 518.9,283.5" style="fill:none;stroke:#000000;stroke-width:2.0px;stroke-linecap:butt;stroke-linejoin:miter;stroke-miterlimit:10;stroke-opacity:1;"/>
<path d="M 459.9,240.1 L 457.7,239.8 L 456.4,241.6" style="fill:none;stroke:#000000;stroke-width:2.0px;stroke-linecap:butt;stroke-linejoin:miter;stroke-miterlimit:10;stroke-opacity:1;"/>
<path d="M 432.7,273.9 L 431.3,275.7 L 432.2,277.7" style="fill:none;stroke:#000000;stroke-width:2.0px;stroke-linecap:butt;stroke-linejoin:miter;stroke-miterlimit:10;stroke-opacity:1;"/>
<path d="M 234.1,303.1 L 231.9,303.6 L 230.4,301.9" style="fill:none;stroke:#000000;stroke-width:2.0px;stroke-linecap:butt;stroke-linejoin:miter;stroke-miterlimit:10;stroke-opacity:1;"/>
<path class="atom-4" d="M 126.3 239.8 L 130.4 246.5 Q 130.8 247.1, 131.5 248.3 Q 132.2 249.5, 132.2 249.6 L 132.2 239.8 L 133.9 239.8 L 133.9 252.4 L 132.1 252.4 L 127.7 245.1 Q 127.2 244.2, 126.6 243.2 Q 126.1 242.3, 125.9 242.0 L 125.9 252.4 L 124.3 252.4 L 124.3 239.8 L 126.3 239.8 " fill="#0000FF"/>
<path class="atom-4" d="M 124.1 225.9 L 125.9 225.9 L 125.9 231.3 L 132.3 231.3 L 132.3 225.9 L 134.0 225.9 L 134.0 238.5 L 132.3 238.5 L 132.3 232.7 L 125.9 232.7 L 125.9 238.5 L 124.1 238.5 L 124.1 225.9 " fill="#0000FF"/>
<path class="atom-6" d="M 138.9 321.6 Q 138.9 318.6, 140.4 316.9 Q 141.9 315.2, 144.7 315.2 Q 147.5 315.2, 149.0 316.9 Q 150.5 318.6, 150.5 321.6 Q 150.5 324.7, 149.0 326.4 Q 147.4 328.2, 144.7 328.2 Q 141.9 328.2, 140.4 326.4 Q 138.9 324.7, 138.9 321.6 M 144.7 326.8 Q 146.6 326.8, 147.6 325.5 Q 148.7 324.2, 148.7 321.6 Q 148.7 319.2, 147.6 317.9 Q 146.6 316.7, 144.7 316.7 Q 142.8 316.7, 141.7 317.9 Q 140.7 319.1, 140.7 321.6 Q 140.7 324.2, 141.7 325.5 Q 142.8 326.8, 144.7 326.8 " fill="#FF0000"/>
<path class="atom-11" d="M 329.4 237.0 L 336.9 237.0 L 336.9 238.4 L 331.0 238.4 L 331.0 242.3 L 336.2 242.3 L 336.2 243.7 L 331.0 243.7 L 331.0 249.6 L 329.4 249.6 L 329.4 237.0 " fill="#000000"/>
<path class="atom-17" d="M 397.4 414.4 L 401.5 421.1 Q 401.9 421.8, 402.6 422.9 Q 403.3 424.1, 403.3 424.2 L 403.3 414.4 L 405.0 414.4 L 405.0 427.0 L 403.2 427.0 L 398.8 419.7 Q 398.3 418.9, 397.7 417.9 Q 397.2 416.9, 397.0 416.6 L 397.0 427.0 L 395.4 427.0 L 395.4 414.4 L 397.4 414.4 " fill="#0000FF"/>
<path class="atom-24" d="M 524.8 213.2 Q 524.9 213.2, 525.5 213.5 Q 526.1 213.7, 526.7 213.9 Q 527.4 214.0, 528.0 214.0 Q 529.2 214.0, 529.9 213.5 Q 530.6 212.9, 530.6 211.9 Q 530.6 211.2, 530.3 210.7 Q 529.9 210.3, 529.4 210.1 Q 528.9 209.8, 528.0 209.6 Q 526.8 209.2, 526.2 208.9 Q 525.5 208.6, 525.0 207.9 Q 524.6 207.2, 524.6 206.1 Q 524.6 204.5, 525.6 203.5 Q 526.7 202.6, 528.9 202.6 Q 530.3 202.6, 532.0 203.3 L 531.6 204.6 Q 530.0 204.0, 528.9 204.0 Q 527.7 204.0, 527.0 204.5 Q 526.3 205.0, 526.3 205.9 Q 526.3 206.6, 526.7 207.0 Q 527.0 207.4, 527.5 207.6 Q 528.1 207.8, 528.9 208.1 Q 530.0 208.5, 530.7 208.8 Q 531.4 209.2, 531.9 209.9 Q 532.4 210.6, 532.4 211.9 Q 532.4 213.6, 531.2 214.5 Q 530.0 215.5, 528.1 215.5 Q 527.0 215.5, 526.1 215.2 Q 525.3 215.0, 524.3 214.6 L 524.8 213.2 " fill="#CCCC00"/>
<path class="atom-26" d="M 486.7 182.5 Q 486.7 179.5, 488.2 177.8 Q 489.7 176.1, 492.5 176.1 Q 495.3 176.1, 496.8 177.8 Q 498.3 179.5, 498.3 182.5 Q 498.3 185.6, 496.7 187.3 Q 495.2 189.0, 492.5 189.0 Q 489.7 189.0, 488.2 187.3 Q 486.7 185.6, 486.7 182.5 M 492.5 187.6 Q 494.4 187.6, 495.4 186.3 Q 496.5 185.0, 496.5 182.5 Q 496.5 180.0, 495.4 178.8 Q 494.4 177.5, 492.5 177.5 Q 490.5 177.5, 489.5 178.8 Q 488.5 180.0, 488.5 182.5 Q 488.5 185.1, 489.5 186.3 Q 490.5 187.6, 492.5 187.6 " fill="#FF0000"/>
<path class="atom-27" d="M 558.4 235.3 Q 558.4 232.2, 559.9 230.5 Q 561.4 228.8, 564.2 228.8 Q 567.0 228.8, 568.5 230.5 Q 570.0 232.2, 570.0 235.3 Q 570.0 238.3, 568.5 240.1 Q 567.0 241.8, 564.2 241.8 Q 561.4 241.8, 559.9 240.1 Q 558.4 238.3, 558.4 235.3 M 564.2 240.4 Q 566.1 240.4, 567.2 239.1 Q 568.2 237.8, 568.2 235.3 Q 568.2 232.8, 567.2 231.5 Q 566.1 230.3, 564.2 230.3 Q 562.3 230.3, 561.2 231.5 Q 560.2 232.8, 560.2 235.3 Q 560.2 237.8, 561.2 239.1 Q 562.3 240.4, 564.2 240.4 " fill="#FF0000"/>
<path class="atom-30" d="M 375.5 345.8 L 379.7 352.5 Q 380.1 353.1, 380.7 354.3 Q 381.4 355.5, 381.4 355.6 L 381.4 345.8 L 383.1 345.8 L 383.1 358.4 L 381.4 358.4 L 376.9 351.1 Q 376.4 350.2, 375.9 349.2 Q 375.3 348.3, 375.2 348.0 L 375.2 358.4 L 373.5 358.4 L 373.5 345.8 L 375.5 345.8 " fill="#000000"/>
<path class="atom-31" d="M 345.9 312.5 L 350.1 319.2 Q 350.5 319.9, 351.1 321.0 Q 351.8 322.2, 351.8 322.3 L 351.8 312.5 L 353.5 312.5 L 353.5 325.1 L 351.8 325.1 L 347.3 317.8 Q 346.8 317.0, 346.3 316.0 Q 345.7 315.0, 345.6 314.7 L 345.6 325.1 L 343.9 325.1 L 343.9 312.5 L 345.9 312.5 " fill="#000000"/>
</svg>